<?xml version="1.0" encoding="UTF-8" standalone="no"?>
<!-- Created with Inkscape (http://www.inkscape.org/) -->

<svg
   xmlns:dc="http://purl.org/dc/elements/1.1/"
   xmlns:cc="http://creativecommons.org/ns#"
   xmlns:rdf="http://www.w3.org/1999/02/22-rdf-syntax-ns#"
   xmlns:svg="http://www.w3.org/2000/svg"
   xmlns="http://www.w3.org/2000/svg"
   xmlns:sodipodi="http://sodipodi.sourceforge.net/DTD/sodipodi-0.dtd"
   xmlns:inkscape="http://www.inkscape.org/namespaces/inkscape"
   width="610"
   height="170"
   viewBox="0 0 161.39566 44.979167"
   version="1.1"
   id="svg837"
   sodipodi:docname="logo.svg"
   inkscape:version="0.92.4 5da689c313, 2019-01-14">
  <defs
     id="defs831" />
  <sodipodi:namedview
     id="base"
     pagecolor="#ffffff"
     bordercolor="#666666"
     borderopacity="1.0"
     inkscape:pageopacity="0.0"
     inkscape:pageshadow="2"
     inkscape:zoom="0.7"
     inkscape:cx="188.65143"
     inkscape:cy="147.14319"
     inkscape:document-units="px"
     inkscape:current-layer="layer1"
     showgrid="false"
     fit-margin-top="0"
     fit-margin-left="0"
     fit-margin-right="0"
     fit-margin-bottom="0"
     inkscape:window-width="1920"
     inkscape:window-height="1024"
     inkscape:window-x="0"
     inkscape:window-y="28"
     inkscape:window-maximized="1"
     units="px" />
  <metadata
     id="metadata834">
    <rdf:RDF>
      <cc:Work
         rdf:about="">
        <dc:format>image/svg+xml</dc:format>
        <dc:type
           rdf:resource="http://purl.org/dc/dcmitype/StillImage" />
        <dc:title></dc:title>
      </cc:Work>
    </rdf:RDF>
  </metadata>
  <g
     inkscape:label="Layer 1"
     inkscape:groupmode="layer"
     id="layer1"
     transform="translate(-32.484785,-142.78581)">
    <g
       transform="matrix(0.35419977,0,0,0.36224432,25.087859,114.78291)"
       id="surface4">
      <text
         xml:space="preserve"
         id="0"
         transform="matrix(0.78364566,0,0,0.78364566,162.83646,156)"
         font-size="49"
         style="font-size:49px;font-family:'Segoe UI';fill:#2aaae2">Rugby Super Six</text>
    </g>
    <path
       inkscape:connector-curvature="0"
       id="path2"
       d="m 77.160085,168.88746 c -2.96108,2.39405 -6.03708,3.78568 -9.22911,4.17268 -0.4543,0.0477 -0.89342,0.071 -1.31844,0.071 -0.296,0 -0.58766,-0.009 -0.87499,-0.0277 l 2.38751,7.60797 c 0.22227,0.92702 0.004,1.61785 -0.65271,2.07137 -0.70259,0.29385 -1.2252,0.01 -1.56782,-0.85161 -0.01,-0.0377 -0.0184,-0.071 -0.0282,-0.0987 l -2.35932,-9.1981 c -1.27616,-0.44466 -2.32246,-1.18206 -3.13673,-2.21331 -1.33145,-1.73205 -1.776,-3.87107 -1.33145,-6.41593 l -2.80387,0.39699 c -0.11059,0.16078 -0.1854,0.26502 -0.22227,0.3127 l -0.0271,0.0288 -0.0282,0.0133 c -0.37948,0.3504 -0.57356,0.63871 -0.58332,0.86603 -0.19408,0.73851 -0.43912,1.23528 -0.73512,1.49032 -0.27757,0.60545 -0.46297,0.94143 -0.55513,1.00797 l -0.0412,0.0566 h -0.0976 c -0.54538,0.71965 -0.98125,1.15988 -1.30435,1.32066 -0.12035,0.18851 -0.21794,0.33044 -0.29166,0.42581 -0.51827,0.6997 -0.96173,1.10222 -1.33254,1.20645 -0.65706,0.46351 -1.09618,0.8372 -1.31845,1.12107 0.0369,0.10423 0.0423,0.18407 0.0141,0.24063 -0.1854,0.22731 -0.37514,0.33598 -0.56923,0.32711 h -1.73479 l 0.0976,-0.24173 c 0.20384,-0.37813 0.40226,-0.60544 0.59634,-0.68085 0.0369,-0.13306 0.0737,-0.22732 0.11167,-0.28387 l 0.0271,-0.0432 0.0423,-0.0277 c 0.064,-0.0377 0.14313,-0.0566 0.23529,-0.0566 0.0737,0.009 0.13444,0.0188 0.18106,0.0277 0.81427,-0.5866 1.28592,-1.04012 1.41495,-1.3628 0.35129,-0.53891 0.62886,-0.80837 0.8327,-0.80837 0.14854,-0.10424 0.28732,-0.2373 0.41635,-0.39809 0.0835,-0.1508 0.15288,-0.26945 0.20817,-0.35483 0.0553,-0.387 0.14854,-0.71855 0.27757,-0.99355 -0.17565,-0.21734 -0.24504,-0.39698 -0.20817,-0.53892 v -0.0144 l 0.0141,-0.0144 c 0.065,-0.37812 0.065,-0.64314 0,-0.79395 -0.12903,-0.44465 -0.15288,-0.83276 -0.0694,-1.16431 l -4.247,0.60988 -4.14941,16.15294 c -0.296,0.87934 -0.80451,1.21089 -1.52662,0.99355 -0.67548,-0.39809 -0.92486,-1.06895 -0.74921,-2.01593 0.009,-0.0277 0.0184,-0.061 0.0271,-0.0987 l 4.63623,-14.77572 -13.10203,1.87289 6.85677,18.52259 27.95079,1.43377 12.43523,-21.38903 c -0.76873,0.89819 -1.6242,1.73539 -2.5675,2.5116"
       style="fill:#28a8e1;fill-opacity:1;fill-rule:evenodd;stroke:none;stroke-width:0.28070146" />
    <path
       inkscape:connector-curvature="0"
       id="path4"
       d="m 43.879135,166.70187 c -0.0184,-0.10424 -0.12469,-0.17964 -0.31877,-0.22732 -0.1854,-0.0277 -0.296,0.004 -0.33286,0.0998 l -2.24873,14.03721 2.72038,-8.67249 0.0694,-1.90171 h 0.52694 l 0.12469,-0.41139 h -0.63754 l 0.0965,-2.9241"
       style="fill:#9987c2;fill-opacity:1;fill-rule:evenodd;stroke:none;stroke-width:0.28070146" />
    <path
       inkscape:connector-curvature="0"
       id="path6"
       d="m 45.101085,167.48251 0.12469,-0.39697 -0.54104,-0.55444 0.41635,0.95141"
       style="fill:#5c943f;fill-opacity:1;fill-rule:evenodd;stroke:none;stroke-width:0.28070146" />
    <path
       inkscape:connector-curvature="0"
       id="path8"
       d="m 65.210605,179.23434 -12.24114,-9.97763 c -0.14746,0.11311 -0.25372,0.19405 -0.31877,0.24173 -0.12035,0.18851 -0.21794,0.33045 -0.29167,0.42581 -0.0184,0.0377 -0.0369,0.0754 -0.0553,0.1131 h 0.54104 l 12.6434,11.49679 c 0.10192,0.0942 0.22661,0.1752 0.37407,0.24173 l -0.65164,-2.54153"
       style="fill:#7f68c2;fill-opacity:1;fill-rule:evenodd;stroke:none;stroke-width:0.28070146" />
    <path
       inkscape:connector-curvature="0"
       id="path10"
       d="m 51.456935,168.78876 c 0.0553,-0.0854 0.0976,-0.15191 0.12469,-0.19959 0.01,-0.13196 0.0325,-0.26946 0.0694,-0.41139 l -1.97007,-1.60343 c -0.13879,-0.10424 -0.29167,-0.1375 -0.45864,-0.0998 -0.12903,0.0477 -0.14746,0.12308 -0.0553,0.22732 l 2.28993,2.08689"
       style="fill:#5c943f;fill-opacity:1;fill-rule:evenodd;stroke:none;stroke-width:0.28070146" />
    <path
       inkscape:connector-curvature="0"
       id="path12"
       d="m 48.112035,171.89693 c 0.0369,-0.14193 0.0792,-0.24173 0.12469,-0.29828 l 0.0141,-0.0288 0.0423,-0.0277 c 0.064,-0.0377 0.14312,-0.0566 0.23528,-0.0566 0.0737,0 0.13879,0.009 0.19408,0.0277 0.17673,-0.0943 0.34262,-0.20847 0.49984,-0.34043 l -1.09617,-1.13548 h 2.06765 c 0.0933,-0.17077 0.19408,-0.30716 0.30576,-0.41139 h -2.78976 l -1.08208,-1.12107 -0.29167,1.12107 -0.11167,0.41139 v 0.0288 l 1.19375,2.75332 0.11168,-0.25614 c 0.19408,-0.36815 0.38816,-0.59103 0.58224,-0.66644"
       style="fill:#9987c2;fill-opacity:1;fill-rule:evenodd;stroke:none;stroke-width:0.28070146" />
    <path
       inkscape:connector-curvature="0"
       id="path14"
       d="m 51.234665,147.95195 c 0.0835,-0.22732 0.21793,-0.30272 0.40226,-0.22732 0.16697,0.11422 0.2266,0.28942 0.18107,0.52561 l -1.6936,6.6 h 8.82685 l -0.69391,-2.68236 c -0.82295,0.34043 -1.74889,0.85605 -2.77568,1.54688 0.0553,-0.19849 0.92053,-0.95585 2.59569,-2.27097 l -0.81969,-3.19355 c -0.0455,-0.25504 0.0184,-0.43024 0.19516,-0.52561 0.17565,-0.0654 0.30468,0.01 0.38817,0.22732 l 0.73512,2.31422 c 2.68351,-1.79859 5.09812,-2.82984 7.24493,-3.09486 2.13705,-0.27389 3.9781,-0.11311 5.52315,0.48236 l -2.41461,-4.86795 -26.14661,4.74043 -10.29817,18.04023 13.61488,-1.24859 5.13499,-16.36584"
       style="fill:#d11cc7;fill-opacity:1;fill-rule:evenodd;stroke:none;stroke-width:0.28070146" />
    <path
       inkscape:connector-curvature="0"
       id="path16"
       d="m 59.075935,151.85518 2.15115,6.84174 c 0.98124,-1.54244 2.21186,-2.9618 3.69186,-4.25807 -0.0651,-0.51119 -0.52261,-1.21089 -1.37374,-2.10131 -0.84246,-0.87934 -2.33222,-1.04012 -4.46927,-0.48236"
       style="fill:#d11cc7;fill-opacity:1;fill-rule:evenodd;stroke:none;stroke-width:0.28070146" />
    <path
       inkscape:connector-curvature="0"
       id="path18"
       d="m 58.590195,150.3083 0.20818,0.66754 c 1.32277,-0.85161 2.88192,-1.34838 4.67743,-1.49032 1.78576,-0.14193 3.66367,0.55333 5.63483,2.08579 0.51719,-0.26502 1.04088,-0.50565 1.56783,-0.72409 -2.70195,-1.72208 -5.15343,-2.40736 -7.35553,-2.05807 -2.20211,0.36038 -3.77969,0.86603 -4.73274,1.51915"
       style="fill:#d11cc7;fill-opacity:1;fill-rule:evenodd;stroke:none;stroke-width:0.28070146" />
    <path
       inkscape:connector-curvature="0"
       id="path20"
       d="m 59.200625,155.80165 h -9.31151 l -2.15115,8.35979 4.27411,-0.39808 c 0.13878,-0.18851 0.24937,-0.31603 0.33286,-0.38257 l 0.0423,-0.24173 0.0271,-0.0277 c 0.11168,-0.13306 0.23636,-0.22732 0.37515,-0.28387 -0.0933,-0.0388 -0.13879,-0.0998 -0.13879,-0.18518 v -0.0277 l 0.0141,-0.0144 c 0,-0.01 0.004,-0.0244 0.013,-0.0432 -0.0553,-0.0189 -0.0922,-0.0466 -0.11059,-0.0843 -0.0369,-0.0388 -0.0553,-0.081 -0.0553,-0.12863 0,-0.0277 0.004,-0.0566 0.0141,-0.0843 -0.01,-0.01 -0.0184,-0.0244 -0.0282,-0.0432 -0.0369,-0.0854 -0.0369,-0.15635 0,-0.2129 l 0.0141,-0.0144 0.0141,-0.0133 c 0.009,-0.01 0.0184,-0.0188 0.0271,-0.0288 -0.009,-0.0565 -0.0141,-0.0898 -0.0141,-0.0998 v -0.12752 l 0.36105,-0.11311 c 0.0466,-0.0477 0.12469,-0.081 0.23637,-0.0998 0,-0.28387 -0.0141,-0.44022 -0.0423,-0.46794 l -0.013,-0.0144 c -0.0282,-0.6997 0.0737,-1.07893 0.30467,-1.13549 0.13879,-0.12308 0.296,-0.18961 0.47165,-0.19848 -0.009,-0.0854 -0.013,-0.16633 -0.013,-0.24174 l -0.29166,0.19849 0.20818,-0.52449 c 0.0553,-0.14194 0.12035,-0.25615 0.19408,-0.34043 h -0.49984 l 0.72211,-0.35484 c 0.13878,-0.0577 0.30467,-0.0854 0.49983,-0.0854 0.064,0 0.12469,0 0.17999,0 l -0.15288,-0.15635 0.54104,0.11311 c 0.2136,0.0665 0.37948,0.1752 0.49984,0.32712 l 0.0282,-0.17077 0.24938,0.39808 c 0.15721,0.39698 0.18974,0.74738 0.0976,1.05011 0,0.009 0,0.0188 0,0.0277 0.0553,0.0188 0.0455,0.14747 -0.0282,0.38366 0.0184,0.0189 0.0325,0.0421 0.0423,0.071 0.43478,0.16079 0.72536,0.37369 0.8739,0.63872 0.12035,-0.16079 0.23094,-0.30273 0.33286,-0.42581 0,-0.34043 0.47165,-0.60988 1.41603,-0.80948 0.0835,0.01 0.17131,0.0144 0.26347,0.0144 l 0.0282,0.0144 h 0.013 c 0.16697,0.0377 0.296,0.19405 0.38924,0.46794 v 0.0288 c 0.0835,0.44466 -0.26889,0.80948 -1.05497,1.09335 l -0.0141,0.0133 h -0.0141 c -0.10083,-0.0466 -0.27214,0.0665 -0.51285,0.34153 -0.0184,0.16079 -0.15721,0.36815 -0.41635,0.6243 -0.0282,0.34042 -0.10192,0.64314 -0.22227,0.90816 l 2.04055,-0.19849 c 0.064,-0.25614 0.13879,-0.51118 0.22119,-0.76623 0.23203,-0.7008 0.51827,-1.39607 0.86089,-2.08689 l -1.13846,-4.44214"
       style="fill:#d11cc7;fill-opacity:1;fill-rule:evenodd;stroke:none;stroke-width:0.28070146" />
    <path
       inkscape:connector-curvature="0"
       id="path22"
       d="m 59.006545,159.97434 c -1.11027,0.17964 -1.61444,0.41583 -1.51252,0.70968 -0.17565,0.22732 -0.34696,0.44022 -0.51394,0.63871 -0.0553,0.0665 -0.0824,0.0987 -0.0824,0.0987 -0.40767,0.19959 -0.62018,0.26058 -0.63862,0.18518 -0.065,0 -0.12469,0.004 -0.18106,0.0144 -0.0184,0 -0.0314,0 -0.0412,0 -0.0466,0.009 -0.0878,0.0188 -0.12469,0.0277 -0.0184,0 -0.0325,0.004 -0.0423,0.0144 -0.0455,0.01 -0.0922,0.0233 -0.13879,0.0421 0,0.01 0,0.0144 0,0.0144 -0.0455,0.0189 -0.0824,0.0377 -0.11059,0.0566 -0.01,0.01 -0.0184,0.0188 -0.0282,0.0288 -0.0271,0.0188 -0.051,0.0377 -0.0694,0.0565 -0.009,0.01 -0.0184,0.0189 -0.0271,0.0288 -0.0282,0.0277 -0.051,0.061 -0.0694,0.0987 -0.01,0 -0.0141,0 -0.0141,0 -0.0184,0.0388 -0.0369,0.071 -0.0553,0.0998 0,0.01 -0.004,0.0188 -0.0141,0.0288 -0.01,0.0277 -0.0184,0.0565 -0.0282,0.0843 -0.009,0.01 -0.013,0.0189 -0.013,0.0288 -0.01,0.0288 -0.0184,0.061 -0.0282,0.0998 -0.01,0.009 -0.0141,0.0188 -0.0141,0.0277 -0.009,0.0189 -0.0141,0.0432 -0.0141,0.071 0,0.0188 -0.004,0.0333 -0.013,0.0432 0,0.0188 0,0.0377 0,0.0565 0,0.009 -0.005,0.0233 -0.0141,0.0421 0,0.0188 0,0.0433 0,0.071 -0.13878,-0.16966 -0.57899,0.0477 -1.31844,0.65312 -0.0369,-0.24617 0.34695,-0.53004 1.15147,-0.85161 -0.0271,-0.0477 0.0325,-0.22288 0.18106,-0.52561 0.14746,-0.31159 0.54538,-0.46794 1.19268,-0.46794 0.0651,0.0288 0.23202,-0.0477 0.49983,-0.22732 -0.11059,-0.29274 -0.42069,-0.52449 -0.9292,-0.69526 0.0271,-0.0754 -0.0282,-0.11311 -0.16697,-0.11311 0.12035,-0.15191 0.14854,-0.29828 0.0835,-0.44022 0.10192,-0.16078 0.0878,-0.50675 -0.0423,-1.03679 0,0.0288 -0.004,0.0854 -0.013,0.17076 0.009,-0.16078 -0.20817,-0.37369 -0.65271,-0.63871 0.0184,0.0188 0.0466,0.061 0.0835,0.12752 -0.14855,-0.0942 -0.49551,-0.0987 -1.04088,-0.0144 0.0369,0 0.10192,0.0144 0.19408,0.0433 -0.0835,-0.0377 -0.2548,0.14637 -0.51393,0.55333 0.0184,-0.0189 0.0748,-0.0521 0.16697,-0.0998 -0.0553,0.0288 -0.0737,0.25171 -0.0553,0.66754 0.009,-0.0188 0.0455,-0.0521 0.11059,-0.0998 0,0.0388 0,0.12863 0,0.27057 -0.0737,-0.10424 -0.29166,-0.071 -0.65163,0.0987 -0.16697,-0.009 -0.24612,0.30827 -0.23636,0.95141 0.0466,0.0466 0.0553,0.28387 0.0282,0.70968 -0.0651,-0.0377 -0.15722,-0.01 -0.27757,0.0854 l -0.29166,0.0843 c -0.0466,0.0388 0.0271,0.071 0.22227,0.0998 -0.0466,-0.01 -0.14421,0.0377 -0.29166,0.14194 -0.0553,0.0288 0,0.0566 0.16589,0.0854 0.0466,-0.01 0.14854,0 0.30575,0.0277 -0.14854,0.0189 -0.29166,0.0621 -0.43044,0.12862 -0.0737,0.0377 0.051,0.061 0.37515,0.071 -0.065,0.0277 -0.14312,0.10313 -0.23637,0.22622 -0.0651,0.0765 0.0607,0.0388 0.37515,-0.11311 0.0271,0.0477 -0.0282,0.17964 -0.16697,0.39698 -0.0922,0 -0.25372,0.0998 -0.48575,0.29828 l -0.0412,0.24174 c -0.25913,0.0854 -0.4955,0.5633 -0.70801,1.43377 -0.10192,0.16966 -0.0878,0.5999 0.0412,1.29073 0.0651,0.10423 0.0607,0.40695 -0.013,0.90927 -0.065,0.0466 0.013,0.19849 0.23528,0.45353 -0.10192,0.16079 -0.20384,0.52561 -0.30467,1.09335 -0.0282,0.0466 -0.11168,0.18407 -0.25046,0.41139 -0.0553,0.0942 -0.21685,0.24617 -0.48574,0.45464 -0.13879,-0.0388 -0.38383,0.20292 -0.73512,0.72298 -0.0737,0.28387 -0.592,0.77621 -1.55481,1.47702 -0.0553,-0.0388 -0.17565,-0.0388 -0.36106,0 -0.0369,0.0466 -0.0694,0.15081 -0.0965,0.31159 -0.10192,-0.0188 -0.30142,0.18962 -0.59741,0.6243 h 1.45722 c 0.25914,0.0288 0.37515,-0.10867 0.34696,-0.4114 0.0564,-0.1508 0.54212,-0.56774 1.45723,-1.24859 0.31552,-0.0665 0.7362,-0.4502 1.26315,-1.1499 0.0553,-0.0566 0.16263,-0.2129 0.31985,-0.46794 0.23962,-0.0665 0.68416,-0.52117 1.33145,-1.3628 h 0.11168 c 0.0835,-0.0477 0.25913,-0.37369 0.52695,-0.97914 0.23202,-0.16078 0.47164,-0.63427 0.7221,-1.41935 -0.0282,-0.1996 0.19408,-0.53559 0.66573,-1.00797 0.13011,-0.10423 0.2548,-0.33155 0.37515,-0.68195 0.10192,0.10423 0.27323,-0.0233 0.51285,-0.38257 h 0.12577 c 0.10084,-0.10423 0.22119,-0.4635 0.35997,-1.07893 -0.42502,0.12309 -0.6332,0.23619 -0.62452,0.34043 -0.28625,0.39808 -0.52695,0.57772 -0.72103,0.54002 -0.31443,0.37812 -0.58332,0.58659 -0.80559,0.62429 0.44454,-0.33155 0.60609,-0.55887 0.48574,-0.68195 0.54646,-0.0754 0.8468,-0.23619 0.90209,-0.48236 0.28733,-0.35041 0.44888,-0.51119 0.48574,-0.48236 0.0282,0.01 0.0564,0.0144 0.0835,0.0144 0.01,0.009 0.0238,0.009 0.0423,0 0.009,0.009 0.0184,0.009 0.0271,0 0.0184,0 0.0369,-0.004 0.0553,-0.0144 0.01,0.01 0.0141,0.01 0.0141,0 0.0184,0 0.0423,-0.004 0.0694,-0.0144 0,-0.009 0,-0.009 0,0 0.27757,-0.27389 0.41636,-0.47238 0.41636,-0.59547 0.32419,-0.36925 0.54646,-0.5256 0.66681,-0.46905 0.77632,-0.38811 1.08208,-0.69083 0.9151,-0.90817 -0.11059,-0.23619 -0.19842,-0.3504 -0.26347,-0.34042"
       style="fill:#000000;fill-opacity:1;fill-rule:evenodd;stroke:none;stroke-width:0.28070146" />
    <path
       inkscape:connector-curvature="0"
       id="path24"
       d="m 76.548575,168.12122 c -2.64557,2.11906 -5.31064,3.40646 -7.99307,3.8611 -2.68351,0.44466 -4.87586,0.004 -6.57921,-1.32067 0.0466,0.0377 0.0932,0.071 0.13879,0.0998 0.38924,0.24617 0.88908,0.43025 1.49951,0.55333 0.30467,0.0566 0.62886,0.0942 0.97148,0.11311 0.34263,0.01 0.7026,-0.004 1.08208,-0.0421 0.75897,-0.0665 1.55481,-0.22289 2.38751,-0.46795 0.82294,-0.24617 1.66107,-0.56774 2.5122,-0.96582 0.21252,-0.0943 0.42503,-0.19849 0.63754,-0.3116 0.2136,-0.10423 0.42611,-0.21844 0.63862,-0.34153 0.20384,-0.1131 0.41201,-0.23175 0.62453,-0.35484 0.10192,-0.0654 0.20817,-0.13195 0.31985,-0.19849 0.10083,-0.0665 0.20275,-0.13195 0.30467,-0.19848 0.8327,-0.53005 1.6383,-1.1122 2.41462,-1.74537 l 0.27757,-0.24173 c 0.0932,-0.0854 0.1854,-0.16522 0.27756,-0.24174 0.19517,-0.16965 0.38491,-0.34042 0.56923,-0.51008 0.37082,-0.34153 0.72645,-0.69082 1.06907,-1.05121 0.0835,-0.0843 0.16589,-0.17409 0.24938,-0.26945 0.0835,-0.0854 0.16697,-0.17521 0.25046,-0.26946 0.16589,-0.17964 0.32852,-0.36482 0.48574,-0.55333 0.14746,-0.17964 0.30034,-0.36482 0.45755,-0.55332 0.14854,-0.18962 0.29167,-0.37924 0.43045,-0.56775 0.56381,-0.76734 1.04955,-1.538 1.45722,-2.31421 0.41636,-0.77621 0.73513,-1.53247 0.95739,-2.27097 0.1106,-0.37813 0.19842,-0.7374 0.26348,-1.07894 0.0553,-0.34929 0.0878,-0.68084 0.0976,-0.99354 0.0184,-0.64315 -0.051,-1.18206 -0.20818,-1.61785 -0.0184,-0.0565 -0.0369,-0.10867 -0.0553,-0.15635 0.89667,1.9871 0.84572,4.27248 -0.15288,6.85615 -0.99967,2.5737 -2.7941,4.95777 -5.38545,7.15334 m -15.46027,1.60343 c -0.0271,-0.0466 -0.0694,-0.12309 -0.12469,-0.22621 -0.0466,-0.0954 -0.0922,-0.2129 -0.13878,-0.35484 -0.0466,-0.15192 -0.0737,-0.33155 -0.0835,-0.54002 -0.0271,-0.41583 0.0369,-0.89819 0.19408,-1.44708 0.16697,-0.54889 0.41201,-1.13548 0.7362,-1.76089 0.33286,-0.61431 0.73512,-1.25303 1.20677,-1.91613 0.46297,-0.64314 0.98558,-1.29627 1.5689,-1.95827 0.57357,-0.65312 1.19376,-1.29627 1.85948,-1.93054 0.65706,-0.64315 1.34664,-1.25857 2.06766,-1.84517 0.18541,-0.14193 0.36539,-0.2883 0.54104,-0.44022 0.18541,-0.14193 0.37081,-0.28387 0.55513,-0.42581 0.17674,-0.14193 0.36106,-0.27832 0.55514,-0.41139 0.17673,-0.13195 0.36105,-0.26502 0.55513,-0.39697 0.7503,-0.53004 1.49952,-1.0124 2.24873,-1.44819 0.74922,-0.43468 1.48542,-0.81835 2.20644,-1.1499 0.72211,-0.33044 1.41603,-0.59547 2.08176,-0.79395 0.66681,-0.1996 1.27724,-0.31714 1.83237,-0.35484 0.56381,-0.0388 1.04088,0 1.42904,0.1131 0.19408,0.0477 0.36105,0.10867 0.49984,0.18408 0.12035,0.0854 0.22227,0.16078 0.30575,0.22731 0.0922,0.0754 0.15722,0.13307 0.19408,0.17077 0.0455,0.0466 0.0694,0.071 0.0694,0.071 0,-0.01 0.0141,0.0144 0.0412,0.071 0.0369,0.0566 0.0792,0.13196 0.12469,0.22732 0.0466,0.10313 0.0976,0.22621 0.15288,0.36815 0.0369,0.15191 0.065,0.32711 0.0835,0.5256 0.0184,0.41583 -0.051,0.90373 -0.20818,1.46149 -0.15721,0.5489 -0.40225,1.13105 -0.73511,1.74648 -0.33395,0.62429 -0.73187,1.263 -1.19376,1.91613 -0.47165,0.65312 -0.99968,1.30514 -1.58192,1.95827 -0.57356,0.6631 -1.19375,1.31068 -1.86056,1.94496 -0.15722,0.16078 -0.32311,0.31713 -0.49876,0.46794 -0.16697,0.16079 -0.33828,0.31714 -0.51393,0.46905 -0.16697,0.15081 -0.3372,0.30273 -0.51393,0.45354 -0.18432,0.15191 -0.36539,0.29828 -0.54104,0.44022 -0.71235,0.59657 -1.44313,1.15877 -2.19235,1.68881 -0.74921,0.52117 -1.49951,1.00353 -2.24872,1.44819 -0.75898,0.43467 -1.49844,0.81834 -2.22054,1.1499 -0.72103,0.32157 -1.41495,0.58104 -2.08176,0.78064 -0.65705,0.19849 -1.26748,0.32157 -1.83129,0.36815 -0.56489,0.0388 -1.04087,0 -1.43012,-0.11311 -0.19408,-0.0566 -0.36105,-0.12308 -0.49984,-0.19849 -0.12035,-0.0754 -0.22118,-0.14637 -0.30467,-0.2129 -0.0835,-0.0754 -0.14854,-0.1375 -0.19408,-0.18518 -0.0466,-0.0377 -0.0694,-0.0566 -0.0694,-0.0566 0,0 -0.0141,-0.0277 -0.0423,-0.0854 m 4.94093,-14.95981 c 2.64664,-2.11905 5.31064,-3.40202 7.99415,-3.84668 2.68242,-0.45352 4.87585,-0.0188 6.57812,1.30626 -0.0369,-0.0288 -0.0835,-0.061 -0.13878,-0.0998 -0.37949,-0.23619 -0.87933,-0.42027 -1.49843,-0.55333 -0.296,-0.0466 -0.62019,-0.0798 -0.97149,-0.0987 -0.34262,-0.01 -0.70367,0 -1.08316,0.0277 -0.75897,0.0665 -1.54939,0.22289 -2.37341,0.46906 -0.83271,0.24506 -1.67408,0.56774 -2.52522,0.96471 -0.21251,0.10424 -0.42611,0.20847 -0.63862,0.31271 -0.20384,0.1131 -0.41201,0.22621 -0.62452,0.34042 -0.21252,0.12309 -0.42611,0.24617 -0.63862,0.36926 -0.10192,0.0565 -0.20384,0.11754 -0.30468,0.18407 -0.10192,0.0665 -0.20817,0.13195 -0.31985,0.19848 -0.40659,0.26503 -0.81427,0.54446 -1.22086,0.8372 -0.20384,0.15192 -0.40226,0.30273 -0.59742,0.45464 -0.10084,0.0754 -0.19842,0.15192 -0.29058,0.22732 l -0.29166,0.24062 c -0.77741,0.63428 -1.50819,1.31069 -2.19343,2.03035 -0.0824,0.0943 -0.17023,0.18407 -0.26347,0.26945 -0.0737,0.0943 -0.15288,0.18408 -0.23529,0.26946 -0.16697,0.18962 -0.32852,0.37369 -0.48574,0.55333 -0.15721,0.18962 -0.31009,0.37923 -0.45863,0.56774 -0.14746,0.18075 -0.296,0.36925 -0.44346,0.56774 -0.55514,0.75736 -1.04088,1.52359 -1.45723,2.29981 -0.40768,0.78508 -0.72645,1.54687 -0.95847,2.28538 -0.1106,0.36925 -0.19842,0.72853 -0.26348,1.07893 -0.0553,0.34043 -0.0878,0.67087 -0.0965,0.99355 -0.01,0.63317 0.0596,1.16764 0.20818,1.60343 0.0184,0.0665 0.0412,0.12308 0.0694,0.17077 -0.90751,-1.9871 -0.86089,-4.27249 0.13878,-6.85616 1.00835,-2.58256 2.80278,-4.97218 5.38437,-7.16775 m -5.39846,13.3852 c -0.01,-0.33156 0.0141,-0.69637 0.0694,-1.09335 0.0553,-0.28387 0.12903,-0.58216 0.22227,-0.89375 0.0455,-0.16079 0.0965,-0.32268 0.1518,-0.48347 0.0564,-0.16079 0.12035,-0.32157 0.19516,-0.48236 0.27757,-0.662 0.63754,-1.34395 1.08208,-2.04365 0.44454,-0.6997 0.95305,-1.40051 1.52662,-2.1002 0.28732,-0.35041 0.58332,-0.69638 0.888,-1.0368 0.15721,-0.16966 0.31985,-0.34042 0.48574,-0.51119 0.0835,-0.0754 0.16264,-0.15524 0.23636,-0.24062 0.0835,-0.0854 0.1659,-0.17077 0.24938,-0.25616 0.67549,-0.67086 1.3835,-1.30957 2.12404,-1.91613 0.19408,-0.1508 0.38382,-0.30272 0.56814,-0.45352 0.18541,-0.14194 0.37082,-0.28387 0.55514,-0.42581 0.38924,-0.29385 0.7774,-0.56774 1.16665,-0.82389 0.0922,-0.0754 0.18974,-0.14194 0.29058,-0.19849 0.0932,-0.0665 0.18974,-0.13196 0.29166,-0.19849 0.19408,-0.12308 0.38924,-0.24617 0.58332,-0.36925 0.39792,-0.23619 0.79042,-0.45907 1.17966,-0.66643 0.79584,-0.42581 1.57216,-0.78619 2.33113,-1.07894 0.75898,-0.29385 1.48542,-0.50675 2.17934,-0.63871 0.17565,-0.0377 0.34696,-0.071 0.51285,-0.0998 0.16697,-0.0188 0.32852,-0.0377 0.48574,-0.0565 0.32419,-0.0189 0.62453,-0.0233 0.90209,-0.0144 0.38925,0.0188 0.73621,0.071 1.04088,0.15635 -0.30467,-0.0566 -0.63754,-0.081 -0.99859,-0.071 -0.58332,0.01 -1.21653,0.10423 -1.90177,0.28387 -0.68416,0.17076 -1.39651,0.41139 -2.13705,0.72409 -0.74921,0.31159 -1.50819,0.68528 -2.27583,1.12107 -0.76765,0.42581 -1.53096,0.90373 -2.28993,1.43377 -0.19408,0.12308 -0.38382,0.25504 -0.56923,0.39697 -0.19408,0.13307 -0.38382,0.26946 -0.56923,0.4114 -0.18432,0.14193 -0.36973,0.28387 -0.55513,0.4258 -0.18433,0.15192 -0.36973,0.29829 -0.55514,0.44023 -0.72102,0.60544 -1.41494,1.23084 -2.08175,1.87399 -0.66573,0.65313 -1.28592,1.31956 -1.85949,2.00151 -0.57356,0.67087 -1.09183,1.34839 -1.5548,2.02924 -0.45322,0.67198 -0.83704,1.33397 -1.15148,1.9871 -0.31443,0.64314 -0.53669,1.25413 -0.66572,1.83075 -0.0932,0.36925 -0.14421,0.71411 -0.15288,1.03679 m 21.31737,-13.38519 c 0.0184,0.32157 -0.005,0.67641 -0.0694,1.06452 -0.0466,0.29385 -0.11601,0.59657 -0.20817,0.90816 -0.0564,0.15192 -0.11168,0.30827 -0.16697,0.46905 -0.0553,0.16079 -0.12035,0.32601 -0.19408,0.49678 -0.27757,0.662 -0.63863,1.34395 -1.08317,2.04365 -0.44345,0.69083 -0.95305,1.38609 -1.52661,2.0869 -0.27757,0.34929 -0.57357,0.69526 -0.888,1.03568 -0.15722,0.17077 -0.31877,0.34043 -0.48575,0.51119 -0.0737,0.0854 -0.15287,0.16966 -0.23528,0.25504 -0.0835,0.0854 -0.16697,0.16634 -0.25046,0.24174 -0.33286,0.34042 -0.67982,0.66643 -1.04087,0.97913 -0.17565,0.16079 -0.3513,0.32157 -0.52695,0.48236 -0.18541,0.15192 -0.37081,0.30827 -0.55513,0.46905 -0.74054,0.60545 -1.49952,1.17319 -2.27584,1.70323 -0.10192,0.0654 -0.1995,0.13196 -0.29166,0.19849 -0.10192,0.0566 -0.20384,0.11754 -0.30576,0.18407 -0.19408,0.13307 -0.38816,0.25615 -0.58224,0.36926 -0.38924,0.23619 -0.78174,0.4635 -1.17966,0.68084 -0.78716,0.41694 -1.56457,0.77178 -2.33221,1.06452 -0.75898,0.29385 -1.48434,0.51119 -2.17825,0.65313 -0.17674,0.0377 -0.34696,0.0665 -0.51394,0.0854 -0.16697,0.0288 -0.32852,0.0477 -0.48574,0.0566 -0.31443,0.0288 -0.61477,0.0377 -0.90209,0.0288 -0.38816,-0.0288 -0.74054,-0.0854 -1.05497,-0.17077 0.30575,0.0665 0.64838,0.0954 1.02678,0.0854 0.57356,-0.0188 1.20351,-0.1131 1.88767,-0.28387 0.68525,-0.17964 1.40193,-0.4258 2.15115,-0.73851 0.74054,-0.30272 1.49409,-0.67086 2.26282,-1.10665 0.76765,-0.43579 1.53529,-0.9126 2.30294,-1.43377 0.75897,-0.53004 1.50385,-1.09224 2.23463,-1.68881 0.17565,-0.15192 0.35672,-0.30273 0.54104,-0.45464 0.17673,-0.15081 0.35238,-0.30716 0.52803,-0.46795 0.16589,-0.15191 0.3372,-0.30716 0.51285,-0.46794 0.16697,-0.16078 0.33394,-0.32268 0.49984,-0.48347 0.66681,-0.65201 1.28591,-1.31512 1.85948,-1.9871 0.58332,-0.68084 1.10159,-1.35726 1.55481,-2.02923 0.46297,-0.68085 0.84679,-1.34396 1.15147,-1.9871 0.31551,-0.65312 0.54212,-1.263 0.6809,-1.83075 0.0824,-0.36925 0.12903,-0.70968 0.13879,-1.02238 m -0.15289,-1.95826 c -1.58191,-1.94052 -3.94123,-2.75333 -7.07796,-2.44173 -3.09986,0.36925 -6.0837,1.72207 -8.95154,4.05958 -2.84939,2.3752 -4.77936,5.06754 -5.7877,8.07591 -0.97149,3.07601 -0.69826,5.60646 0.8186,7.59355 1.57325,1.93055 3.93256,2.74003 7.07796,2.42732 3.09119,-0.36925 6.07504,-1.71764 8.95154,-4.04516 2.84073,-2.3752 4.7696,-5.06754 5.78771,-8.07591 0.96173,-3.07602 0.68958,-5.60646 -0.81861,-7.59356"
       style="fill:#000000;fill-opacity:1;fill-rule:evenodd;stroke:none;stroke-width:0.28070146" />
    <path
       inkscape:connector-curvature="0"
       id="path26"
       d="m 65.765735,154.42444 c -2.8494,2.3752 -4.77936,5.06754 -5.7877,8.07591 -0.97149,3.07601 -0.69826,5.60646 0.8186,7.59356 1.57325,1.93054 3.93256,2.74002 7.07796,2.42732 3.09119,-0.36925 6.07504,-1.71764 8.95154,-4.04517 2.84073,-2.3752 4.7696,-5.06754 5.78771,-8.07591 0.96173,-3.07601 0.68958,-5.60646 -0.81861,-7.59356 -1.58191,-1.94052 -3.94123,-2.75333 -7.07796,-2.44173 -3.09986,0.36925 -6.0837,1.72208 -8.95154,4.05958 m 0.26348,0.34042 c 2.91445,-2.31754 5.82457,-3.63821 8.72927,-3.95978 2.89602,-0.3127 5.12631,0.44909 6.6898,2.28538 1.41494,1.9494 1.66106,4.33791 0.73512,7.16775 -0.91619,2.82873 -2.79411,5.45011 -5.63483,7.86301 -2.91446,2.31865 -5.82349,3.63821 -8.72927,3.95979 -2.89603,0.32157 -5.12524,-0.43468 -6.68872,-2.27097 -1.41603,-1.9494 -1.66106,-4.33791 -0.7362,-7.16775 0.92594,-2.82874 2.80386,-5.45454 5.63483,-7.87743"
       style="fill:#000000;fill-opacity:1;fill-rule:evenodd;stroke:none;stroke-width:0.28070146" />
  </g>
</svg>
