<svg xmlns="http://www.w3.org/2000/svg" width="480pt" height="290pt" viewBox="0 0 480 290" version="1.1" xmlns:xlink="http://www.w3.org/1999/xlink">
  <g id="surface2" transform="matrix(0.7836456558773424,0,0,0.7836456558773424,-104.16354344122658,61)" data-tpl_matrix="1,0,0,1,-0.5,-0.5" data-size="182.62512459200002 158.449219" data-bboxpos="149.148438 29.5" data-center="240 108" data-pivot="240 108">
    <path style="stroke:none;fill-rule:evenodd;fill:rgb(16.470588%,66.666667%,88.627451%);fill-opacity:1" d="M 310.101562 121.449219 C 299.433594 129.882812 288.351562 134.785156 276.851562 136.148438 C 275.214844 136.316406 273.632812 136.398438 272.101562 136.398438 C 271.035156 136.398438 269.984375 136.367188 268.949219 136.300781 L 277.550781 163.101562 C 278.351562 166.367188 277.566406 168.800781 275.199219 170.398438 C 272.667969 171.433594 270.785156 170.433594 269.550781 167.398438 C 269.515625 167.265625 269.484375 167.148438 269.449219 167.050781 L 260.949219 134.648438 C 256.351562 133.082031 252.582031 130.484375 249.648438 126.851562 C 244.851562 120.750000 243.250000 113.214844 244.851562 104.250000 L 234.750000 105.648438 C 234.351562 106.214844 234.082031 106.582031 233.949219 106.750000 L 233.851562 106.851562 L 233.750000 106.898438 C 232.382812 108.132812 231.683594 109.148438 231.648438 109.949219 C 230.949219 112.550781 230.066406 114.300781 229.000000 115.199219 C 228.000000 117.332031 227.332031 118.515625 227.000000 118.750000 L 226.851562 118.949219 L 226.500000 118.949219 C 224.535156 121.484375 222.964844 123.035156 221.800781 123.601562 C 221.367188 124.265625 221.015625 124.765625 220.750000 125.101562 C 218.882812 127.566406 217.285156 128.984375 215.949219 129.351562 C 213.582031 130.984375 212.000000 132.300781 211.199219 133.300781 C 211.332031 133.667969 211.351562 133.949219 211.250000 134.148438 C 210.582031 134.949219 209.898438 135.332031 209.199219 135.300781 L 202.949219 135.300781 L 203.300781 134.449219 C 204.035156 133.117188 204.750000 132.316406 205.449219 132.050781 C 205.582031 131.582031 205.714844 131.250000 205.851562 131.050781 L 205.949219 130.898438 L 206.101562 130.800781 C 206.332031 130.667969 206.617188 130.601562 206.949219 130.601562 C 207.214844 130.632812 207.433594 130.667969 207.601562 130.699219 C 210.535156 128.632812 212.234375 127.035156 212.699219 125.898438 C 213.964844 124.000000 214.964844 123.050781 215.699219 123.050781 C 216.234375 122.683594 216.734375 122.214844 217.199219 121.648438 C 217.500000 121.117188 217.750000 120.699219 217.949219 120.398438 C 218.148438 119.035156 218.484375 117.867188 218.949219 116.898438 C 218.316406 116.132812 218.066406 115.500000 218.199219 115.000000 L 218.199219 114.949219 L 218.250000 114.898438 C 218.484375 113.566406 218.484375 112.632812 218.250000 112.101562 C 217.785156 110.535156 217.699219 109.167969 218.000000 108.000000 L 202.699219 110.148438 L 187.750000 167.050781 C 186.683594 170.148438 184.851562 171.316406 182.250000 170.550781 C 179.816406 169.148438 178.917969 166.785156 179.550781 163.449219 C 179.582031 163.351562 179.617188 163.234375 179.648438 163.101562 L 196.351562 111.050781 L 149.148438 117.648438 L 173.851562 182.898438 L 274.550781 187.949219 L 319.351562 112.601562 C 316.582031 115.765625 313.500000 118.714844 310.101562 121.449219 "></path>
    <path style="stroke:none;fill-rule:evenodd;fill:rgb(60.392157%,53.725490%,76.078431%);fill-opacity:1" d="M 190.199219 113.750000 C 190.132812 113.382812 189.750000 113.117188 189.050781 112.949219 C 188.382812 112.851562 187.984375 112.964844 187.851562 113.300781 L 179.750000 162.750000 L 189.550781 132.199219 L 189.800781 125.500000 L 191.699219 125.500000 L 192.148438 124.050781 L 189.851562 124.050781 L 190.199219 113.750000 "></path>
    <path style="stroke:none;fill-rule:evenodd;fill:rgb(36.078431%,58.039216%,25.098039%);fill-opacity:1" d="M 194.601562 116.500000 L 195.050781 115.101562 L 193.101562 113.148438 L 194.601562 116.500000 "></path>
    <path style="stroke:none;fill-rule:evenodd;fill:rgb(50.980392%,41.960784%,76.078431%);fill-opacity:1" d="M 267.050781 157.898438 L 222.949219 122.750000 C 222.417969 123.148438 222.035156 123.433594 221.800781 123.601562 C 221.367188 124.265625 221.015625 124.765625 220.750000 125.101562 C 220.683594 125.234375 220.617188 125.367188 220.550781 125.500000 L 222.500000 125.500000 L 268.050781 166.000000 C 268.417969 166.332031 268.867188 166.617188 269.398438 166.851562 L 267.050781 157.898438 "></path>
    <path style="stroke:none;fill-rule:evenodd;fill:rgb(36.078431%,58.039216%,25.098039%);fill-opacity:1" d="M 217.500000 121.101562 C 217.699219 120.800781 217.851562 120.566406 217.949219 120.398438 C 217.984375 119.933594 218.066406 119.449219 218.199219 118.949219 L 211.101562 113.300781 C 210.601562 112.933594 210.050781 112.816406 209.449219 112.949219 C 208.984375 113.117188 208.917969 113.382812 209.250000 113.750000 L 217.500000 121.101562 "></path>
    <path style="stroke:none;fill-rule:evenodd;fill:rgb(60.392157%,53.725490%,76.078431%);fill-opacity:1" d="M 205.449219 132.050781 C 205.582031 131.550781 205.734375 131.199219 205.898438 131.000000 L 205.949219 130.898438 L 206.101562 130.800781 C 206.332031 130.667969 206.617188 130.601562 206.949219 130.601562 C 207.214844 130.601562 207.449219 130.632812 207.648438 130.699219 C 208.285156 130.367188 208.882812 129.964844 209.449219 129.500000 L 205.500000 125.500000 L 212.949219 125.500000 C 213.285156 124.898438 213.648438 124.417969 214.050781 124.050781 L 204.000000 124.050781 L 200.101562 120.101562 L 199.050781 124.050781 L 198.648438 125.500000 L 198.648438 125.601562 L 202.949219 135.300781 L 203.351562 134.398438 C 204.050781 133.101562 204.750000 132.316406 205.449219 132.050781 "></path>
    <path style="stroke:none;fill-rule:evenodd;fill:rgb(82.352941%,11.764706%,78.039216%);fill-opacity:1" d="M 216.699219 47.699219 C 217.000000 46.898438 217.484375 46.632812 218.148438 46.898438 C 218.750000 47.300781 218.964844 47.917969 218.800781 48.750000 L 212.699219 72.000000 L 244.500000 72.000000 L 242.000000 62.550781 C 239.035156 63.750000 235.699219 65.566406 232.000000 68.000000 C 232.199219 67.300781 235.316406 64.632812 241.351562 60.000000 L 238.398438 48.750000 C 238.234375 47.851562 238.464844 47.234375 239.101562 46.898438 C 239.734375 46.667969 240.199219 46.933594 240.500000 47.699219 L 243.148438 55.851562 C 252.816406 49.515625 261.515625 45.882812 269.250000 44.949219 C 276.949219 43.984375 283.582031 44.550781 289.148438 46.648438 L 280.449219 29.500000 L 186.250000 46.199219 L 149.148438 109.750000 L 198.199219 105.351562 L 216.699219 47.699219 "></path>
    <path style="stroke:none;fill-rule:evenodd;fill:rgb(82.352941%,11.764706%,78.039216%);fill-opacity:1" d="M 244.949219 61.449219 L 252.699219 85.550781 C 256.234375 80.117188 260.667969 75.117188 266.000000 70.550781 C 265.765625 68.750000 264.117188 66.285156 261.050781 63.148438 C 258.015625 60.050781 252.648438 59.484375 244.949219 61.449219 "></path>
    <path style="stroke:none;fill-rule:evenodd;fill:rgb(82.352941%,11.764706%,78.039216%);fill-opacity:1" d="M 243.199219 56.000000 L 243.949219 58.351562 C 248.714844 55.351562 254.332031 53.601562 260.800781 53.101562 C 267.234375 52.601562 274.000000 55.050781 281.101562 60.449219 C 282.964844 59.515625 284.851562 58.667969 286.750000 57.898438 C 277.015625 51.832031 268.183594 49.417969 260.250000 50.648438 C 252.316406 51.917969 246.632812 53.699219 243.199219 56.000000 "></path>
    <path style="stroke:none;fill-rule:evenodd;fill:rgb(82.352941%,11.764706%,78.039216%);fill-opacity:1" d="M 245.398438 75.351562 L 211.851562 75.351562 L 204.101562 104.800781 L 219.500000 103.398438 C 220.000000 102.734375 220.398438 102.285156 220.699219 102.050781 L 220.851562 101.199219 L 220.949219 101.101562 C 221.351562 100.632812 221.800781 100.300781 222.300781 100.101562 C 221.964844 99.964844 221.800781 99.750000 221.800781 99.449219 L 221.800781 99.351562 L 221.851562 99.300781 C 221.851562 99.265625 221.867188 99.214844 221.898438 99.148438 C 221.699219 99.082031 221.566406 98.984375 221.500000 98.851562 C 221.367188 98.714844 221.300781 98.566406 221.300781 98.398438 C 221.300781 98.300781 221.316406 98.199219 221.351562 98.101562 C 221.316406 98.066406 221.285156 98.015625 221.250000 97.949219 C 221.117188 97.648438 221.117188 97.398438 221.250000 97.199219 L 221.300781 97.148438 L 221.351562 97.101562 C 221.382812 97.066406 221.417969 97.035156 221.449219 97.000000 C 221.417969 96.800781 221.398438 96.683594 221.398438 96.648438 L 221.398438 96.199219 L 222.699219 95.800781 C 222.867188 95.632812 223.148438 95.515625 223.550781 95.449219 C 223.550781 94.449219 223.500000 93.898438 223.398438 93.800781 L 223.351562 93.750000 C 223.250000 91.285156 223.617188 89.949219 224.449219 89.750000 C 224.949219 89.316406 225.515625 89.082031 226.148438 89.050781 C 226.117188 88.750000 226.101562 88.464844 226.101562 88.199219 L 225.050781 88.898438 L 225.800781 87.050781 C 226.000000 86.550781 226.234375 86.148438 226.500000 85.851562 L 224.699219 85.851562 L 227.300781 84.601562 C 227.800781 84.398438 228.398438 84.300781 229.101562 84.300781 C 229.332031 84.300781 229.550781 84.300781 229.750000 84.300781 L 229.199219 83.750000 L 231.148438 84.148438 C 231.917969 84.382812 232.515625 84.765625 232.949219 85.300781 L 233.050781 84.699219 L 233.949219 86.101562 C 234.515625 87.500000 234.632812 88.734375 234.300781 89.800781 C 234.300781 89.832031 234.300781 89.867188 234.300781 89.898438 C 234.500000 89.964844 234.464844 90.417969 234.199219 91.250000 C 234.265625 91.316406 234.316406 91.398438 234.351562 91.500000 C 235.917969 92.066406 236.964844 92.816406 237.500000 93.750000 C 237.933594 93.183594 238.332031 92.683594 238.699219 92.250000 C 238.699219 91.050781 240.398438 90.101562 243.800781 89.398438 C 244.101562 89.433594 244.417969 89.449219 244.750000 89.449219 L 244.851562 89.500000 L 244.898438 89.500000 C 245.500000 89.632812 245.964844 90.183594 246.300781 91.148438 L 246.300781 91.250000 C 246.601562 92.816406 245.332031 94.101562 242.500000 95.101562 L 242.449219 95.148438 L 242.398438 95.148438 C 242.035156 94.984375 241.417969 95.382812 240.550781 96.351562 C 240.484375 96.917969 239.984375 97.648438 239.050781 98.550781 C 238.949219 99.750000 238.683594 100.816406 238.250000 101.750000 L 245.601562 101.050781 C 245.832031 100.148438 246.101562 99.250000 246.398438 98.351562 C 247.234375 95.882812 248.265625 93.433594 249.500000 91.000000 L 245.398438 75.351562 "></path>
    <path style="stroke:none;fill-rule:evenodd;fill:rgb(0.392157%,0.392157%,0.392157%);fill-opacity:1" d="M 244.699219 90.050781 C 240.699219 90.683594 238.882812 91.515625 239.250000 92.550781 C 238.617188 93.351562 238.000000 94.101562 237.398438 94.800781 C 237.199219 95.035156 237.101562 95.148438 237.101562 95.148438 C 235.632812 95.851562 234.867188 96.066406 234.800781 95.800781 C 234.566406 95.800781 234.351562 95.816406 234.148438 95.851562 C 234.082031 95.851562 234.035156 95.851562 234.000000 95.851562 C 233.832031 95.882812 233.683594 95.917969 233.550781 95.949219 C 233.484375 95.949219 233.433594 95.964844 233.398438 96.000000 C 233.234375 96.035156 233.066406 96.082031 232.898438 96.148438 C 232.898438 96.183594 232.898438 96.199219 232.898438 96.199219 C 232.734375 96.265625 232.601562 96.332031 232.500000 96.398438 C 232.464844 96.433594 232.433594 96.464844 232.398438 96.500000 C 232.300781 96.566406 232.214844 96.632812 232.148438 96.699219 C 232.117188 96.734375 232.082031 96.765625 232.050781 96.800781 C 231.949219 96.898438 231.867188 97.015625 231.800781 97.148438 C 231.765625 97.148438 231.750000 97.148438 231.750000 97.148438 C 231.683594 97.285156 231.617188 97.398438 231.550781 97.500000 C 231.550781 97.535156 231.535156 97.566406 231.500000 97.601562 C 231.464844 97.699219 231.433594 97.800781 231.398438 97.898438 C 231.367188 97.933594 231.351562 97.964844 231.351562 98.000000 C 231.316406 98.101562 231.285156 98.214844 231.250000 98.351562 C 231.214844 98.382812 231.199219 98.417969 231.199219 98.449219 C 231.167969 98.515625 231.148438 98.601562 231.148438 98.699219 C 231.148438 98.765625 231.132812 98.816406 231.101562 98.851562 C 231.101562 98.917969 231.101562 98.984375 231.101562 99.050781 C 231.101562 99.082031 231.082031 99.132812 231.050781 99.199219 C 231.050781 99.265625 231.050781 99.351562 231.050781 99.449219 C 230.550781 98.851562 228.964844 99.617188 226.300781 101.750000 C 226.167969 100.882812 227.550781 99.882812 230.449219 98.750000 C 230.351562 98.582031 230.566406 97.964844 231.101562 96.898438 C 231.632812 95.800781 233.066406 95.250000 235.398438 95.250000 C 235.632812 95.351562 236.234375 95.082031 237.199219 94.449219 C 236.800781 93.417969 235.683594 92.601562 233.851562 92.000000 C 233.949219 91.734375 233.750000 91.601562 233.250000 91.601562 C 233.683594 91.066406 233.785156 90.550781 233.550781 90.050781 C 233.917969 89.484375 233.867188 88.265625 233.398438 86.398438 C 233.398438 86.500000 233.382812 86.699219 233.351562 87.000000 C 233.382812 86.433594 232.601562 85.683594 231.000000 84.750000 C 231.066406 84.816406 231.167969 84.964844 231.300781 85.199219 C 230.765625 84.867188 229.515625 84.851562 227.550781 85.148438 C 227.683594 85.148438 227.917969 85.199219 228.250000 85.300781 C 227.949219 85.167969 227.332031 85.816406 226.398438 87.250000 C 226.464844 87.183594 226.667969 87.066406 227.000000 86.898438 C 226.800781 87.000000 226.734375 87.785156 226.800781 89.250000 C 226.832031 89.183594 226.964844 89.066406 227.199219 88.898438 C 227.199219 89.035156 227.199219 89.351562 227.199219 89.851562 C 226.933594 89.484375 226.148438 89.601562 224.851562 90.199219 C 224.250000 90.167969 223.964844 91.285156 224.000000 93.550781 C 224.167969 93.714844 224.199219 94.550781 224.101562 96.050781 C 223.867188 95.917969 223.535156 96.015625 223.101562 96.351562 L 222.050781 96.648438 C 221.882812 96.785156 222.148438 96.898438 222.851562 97.000000 C 222.683594 96.964844 222.332031 97.132812 221.800781 97.500000 C 221.601562 97.601562 221.800781 97.699219 222.398438 97.800781 C 222.566406 97.765625 222.933594 97.800781 223.500000 97.898438 C 222.964844 97.964844 222.449219 98.117188 221.949219 98.351562 C 221.683594 98.484375 222.132812 98.566406 223.300781 98.601562 C 223.066406 98.699219 222.785156 98.964844 222.449219 99.398438 C 222.214844 99.667969 222.667969 99.535156 223.800781 99.000000 C 223.898438 99.167969 223.699219 99.632812 223.199219 100.398438 C 222.867188 100.398438 222.285156 100.750000 221.449219 101.449219 L 221.300781 102.300781 C 220.367188 102.601562 219.515625 104.285156 218.750000 107.351562 C 218.382812 107.949219 218.433594 109.464844 218.898438 111.898438 C 219.132812 112.265625 219.117188 113.332031 218.851562 115.101562 C 218.617188 115.265625 218.898438 115.800781 219.699219 116.699219 C 219.332031 117.265625 218.964844 118.550781 218.601562 120.550781 C 218.500000 120.714844 218.199219 121.199219 217.699219 122.000000 C 217.500000 122.332031 216.917969 122.867188 215.949219 123.601562 C 215.449219 123.464844 214.566406 124.316406 213.300781 126.148438 C 213.035156 127.148438 211.167969 128.882812 207.699219 131.351562 C 207.500000 131.214844 207.066406 131.214844 206.398438 131.351562 C 206.265625 131.515625 206.148438 131.882812 206.050781 132.449219 C 205.683594 132.382812 204.964844 133.117188 203.898438 134.648438 L 209.148438 134.648438 C 210.082031 134.750000 210.500000 134.265625 210.398438 133.199219 C 210.601562 132.667969 212.351562 131.199219 215.648438 128.800781 C 216.785156 128.566406 218.300781 127.214844 220.199219 124.750000 C 220.398438 124.550781 220.785156 124.000000 221.351562 123.101562 C 222.214844 122.867188 223.816406 121.265625 226.148438 118.300781 L 226.550781 118.300781 C 226.851562 118.132812 227.484375 116.984375 228.449219 114.851562 C 229.285156 114.285156 230.148438 112.617188 231.050781 109.851562 C 230.949219 109.148438 231.750000 107.964844 233.449219 106.300781 C 233.917969 105.933594 234.367188 105.132812 234.800781 103.898438 C 235.167969 104.265625 235.785156 103.816406 236.648438 102.550781 L 237.101562 102.550781 C 237.464844 102.183594 237.898438 100.917969 238.398438 98.750000 C 236.867188 99.183594 236.117188 99.582031 236.148438 99.949219 C 235.117188 101.351562 234.250000 101.984375 233.550781 101.851562 C 232.417969 103.183594 231.449219 103.917969 230.648438 104.050781 C 232.250000 102.882812 232.832031 102.082031 232.398438 101.648438 C 234.367188 101.382812 235.449219 100.816406 235.648438 99.949219 C 236.683594 98.714844 237.265625 98.148438 237.398438 98.250000 C 237.500000 98.285156 237.601562 98.300781 237.699219 98.300781 C 237.734375 98.332031 237.785156 98.332031 237.851562 98.300781 C 237.882812 98.332031 237.917969 98.332031 237.949219 98.300781 C 238.015625 98.300781 238.082031 98.285156 238.148438 98.250000 C 238.183594 98.285156 238.199219 98.285156 238.199219 98.250000 C 238.265625 98.250000 238.351562 98.234375 238.449219 98.199219 C 238.449219 98.167969 238.449219 98.167969 238.449219 98.199219 C 239.449219 97.234375 239.949219 96.535156 239.949219 96.101562 C 241.117188 94.800781 241.917969 94.250000 242.351562 94.449219 C 245.148438 93.082031 246.250000 92.015625 245.648438 91.250000 C 245.250000 90.417969 244.933594 90.015625 244.699219 90.050781 "></path>
    <path style="stroke:none;fill-rule:evenodd;fill:rgb(0.392157%,0.392157%,0.392157%);fill-opacity:1" d="M 307.898438 118.750000 C 298.367188 126.214844 288.765625 130.750000 279.101562 132.351562 C 269.433594 133.917969 261.535156 132.367188 255.398438 127.699219 C 255.566406 127.832031 255.734375 127.949219 255.898438 128.050781 C 257.300781 128.917969 259.101562 129.566406 261.300781 130.000000 C 262.398438 130.199219 263.566406 130.332031 264.800781 130.398438 C 266.035156 130.433594 267.332031 130.382812 268.699219 130.250000 C 271.433594 130.015625 274.300781 129.464844 277.300781 128.601562 C 280.265625 127.734375 283.285156 126.601562 286.351562 125.199219 C 287.117188 124.867188 287.882812 124.500000 288.648438 124.101562 C 289.417969 123.734375 290.183594 123.332031 290.949219 122.898438 C 291.683594 122.500000 292.433594 122.082031 293.199219 121.648438 C 293.566406 121.417969 293.949219 121.183594 294.351562 120.949219 C 294.714844 120.714844 295.082031 120.484375 295.449219 120.250000 C 298.449219 118.382812 301.351562 116.332031 304.148438 114.101562 L 305.148438 113.250000 C 305.484375 112.949219 305.816406 112.667969 306.148438 112.398438 C 306.851562 111.800781 307.535156 111.199219 308.199219 110.601562 C 309.535156 109.398438 310.816406 108.167969 312.050781 106.898438 C 312.351562 106.601562 312.648438 106.285156 312.949219 105.949219 C 313.250000 105.648438 313.550781 105.332031 313.851562 105.000000 C 314.449219 104.367188 315.035156 103.714844 315.601562 103.050781 C 316.132812 102.417969 316.683594 101.765625 317.250000 101.101562 C 317.785156 100.433594 318.300781 99.765625 318.800781 99.101562 C 320.832031 96.398438 322.582031 93.683594 324.050781 90.949219 C 325.550781 88.214844 326.699219 85.550781 327.500000 82.949219 C 327.898438 81.617188 328.214844 80.351562 328.449219 79.148438 C 328.648438 77.917969 328.765625 76.750000 328.800781 75.648438 C 328.867188 73.382812 328.617188 71.484375 328.050781 69.949219 C 327.984375 69.750000 327.917969 69.566406 327.851562 69.398438 C 331.082031 76.398438 330.898438 84.449219 327.300781 93.550781 C 323.699219 102.617188 317.234375 111.015625 307.898438 118.750000 M 252.199219 124.398438 C 252.101562 124.234375 251.949219 123.964844 251.750000 123.601562 C 251.582031 123.265625 251.417969 122.851562 251.250000 122.351562 C 251.082031 121.816406 250.984375 121.183594 250.949219 120.449219 C 250.851562 118.984375 251.082031 117.285156 251.648438 115.351562 C 252.250000 113.417969 253.132812 111.351562 254.300781 109.148438 C 255.500000 106.984375 256.949219 104.734375 258.648438 102.398438 C 260.316406 100.132812 262.199219 97.832031 264.300781 95.500000 C 266.367188 93.199219 268.601562 90.933594 271.000000 88.699219 C 273.367188 86.433594 275.851562 84.265625 278.449219 82.199219 C 279.117188 81.699219 279.765625 81.183594 280.398438 80.648438 C 281.066406 80.148438 281.734375 79.648438 282.398438 79.148438 C 283.035156 78.648438 283.699219 78.167969 284.398438 77.699219 C 285.035156 77.234375 285.699219 76.765625 286.398438 76.300781 C 289.101562 74.433594 291.800781 72.734375 294.500000 71.199219 C 297.199219 69.667969 299.851562 68.316406 302.449219 67.148438 C 305.050781 65.984375 307.550781 65.050781 309.949219 64.351562 C 312.351562 63.648438 314.550781 63.234375 316.550781 63.101562 C 318.582031 62.964844 320.300781 63.101562 321.699219 63.500000 C 322.398438 63.667969 323.000000 63.882812 323.500000 64.148438 C 323.933594 64.449219 324.300781 64.714844 324.601562 64.949219 C 324.933594 65.214844 325.167969 65.417969 325.300781 65.550781 C 325.464844 65.714844 325.550781 65.800781 325.550781 65.800781 C 325.550781 65.765625 325.601562 65.851562 325.699219 66.050781 C 325.832031 66.250000 325.984375 66.515625 326.148438 66.851562 C 326.316406 67.214844 326.500000 67.648438 326.699219 68.148438 C 326.832031 68.683594 326.933594 69.300781 327.000000 70.000000 C 327.066406 71.464844 326.816406 73.183594 326.250000 75.148438 C 325.683594 77.082031 324.800781 79.132812 323.601562 81.300781 C 322.398438 83.500000 320.964844 85.750000 319.300781 88.050781 C 317.601562 90.351562 315.699219 92.648438 313.601562 94.949219 C 311.535156 97.285156 309.300781 99.566406 306.898438 101.800781 C 306.332031 102.367188 305.734375 102.917969 305.101562 103.449219 C 304.500000 104.015625 303.882812 104.566406 303.250000 105.101562 C 302.648438 105.632812 302.035156 106.167969 301.398438 106.699219 C 300.734375 107.234375 300.082031 107.750000 299.449219 108.250000 C 296.882812 110.351562 294.250000 112.332031 291.550781 114.199219 C 288.851562 116.035156 286.148438 117.734375 283.449219 119.300781 C 280.714844 120.832031 278.050781 122.183594 275.449219 123.351562 C 272.851562 124.484375 270.351562 125.398438 267.949219 126.101562 C 265.582031 126.800781 263.382812 127.234375 261.351562 127.398438 C 259.316406 127.535156 257.601562 127.398438 256.199219 127.000000 C 255.500000 126.800781 254.898438 126.566406 254.398438 126.300781 C 253.964844 126.035156 253.601562 125.785156 253.300781 125.550781 C 253.000000 125.285156 252.765625 125.066406 252.601562 124.898438 C 252.433594 124.765625 252.351562 124.699219 252.351562 124.699219 C 252.351562 124.699219 252.300781 124.601562 252.199219 124.398438 M 270.000000 71.699219 C 279.535156 64.234375 289.132812 59.714844 298.800781 58.148438 C 308.464844 56.550781 316.367188 58.082031 322.500000 62.750000 C 322.367188 62.648438 322.199219 62.535156 322.000000 62.398438 C 320.632812 61.566406 318.832031 60.917969 316.601562 60.449219 C 315.535156 60.285156 314.367188 60.167969 313.101562 60.101562 C 311.867188 60.066406 310.566406 60.101562 309.199219 60.199219 C 306.464844 60.433594 303.617188 60.984375 300.648438 61.851562 C 297.648438 62.714844 294.617188 63.851562 291.550781 65.250000 C 290.785156 65.617188 290.015625 65.984375 289.250000 66.351562 C 288.515625 66.750000 287.765625 67.148438 287.000000 67.550781 C 286.234375 67.984375 285.464844 68.417969 284.699219 68.851562 C 284.332031 69.050781 283.964844 69.265625 283.601562 69.500000 C 283.234375 69.734375 282.851562 69.964844 282.449219 70.199219 C 280.984375 71.132812 279.515625 72.117188 278.050781 73.148438 C 277.316406 73.683594 276.601562 74.214844 275.898438 74.750000 C 275.535156 75.015625 275.183594 75.285156 274.851562 75.550781 L 273.800781 76.398438 C 271.000000 78.632812 268.367188 81.015625 265.898438 83.550781 C 265.601562 83.882812 265.285156 84.199219 264.949219 84.500000 C 264.683594 84.832031 264.398438 85.148438 264.101562 85.449219 C 263.500000 86.117188 262.917969 86.765625 262.351562 87.398438 C 261.785156 88.066406 261.234375 88.734375 260.699219 89.398438 C 260.167969 90.035156 259.632812 90.699219 259.101562 91.398438 C 257.101562 94.066406 255.351562 96.765625 253.851562 99.500000 C 252.382812 102.265625 251.234375 104.949219 250.398438 107.550781 C 250.000000 108.851562 249.683594 110.117188 249.449219 111.351562 C 249.250000 112.550781 249.132812 113.714844 249.101562 114.851562 C 249.066406 117.082031 249.316406 118.964844 249.851562 120.500000 C 249.917969 120.734375 250.000000 120.933594 250.101562 121.101562 C 246.832031 114.101562 247.000000 106.050781 250.601562 96.949219 C 254.234375 87.851562 260.699219 79.433594 270.000000 71.699219 M 250.550781 118.851562 C 250.515625 117.683594 250.601562 116.398438 250.800781 115.000000 C 251.000000 114.000000 251.265625 112.949219 251.601562 111.851562 C 251.765625 111.285156 251.949219 110.714844 252.148438 110.148438 C 252.351562 109.582031 252.582031 109.015625 252.851562 108.449219 C 253.851562 106.117188 255.148438 103.714844 256.750000 101.250000 C 258.351562 98.785156 260.183594 96.316406 262.250000 93.851562 C 263.285156 92.617188 264.351562 91.398438 265.449219 90.199219 C 266.015625 89.601562 266.601562 89.000000 267.199219 88.398438 C 267.500000 88.132812 267.785156 87.851562 268.050781 87.550781 C 268.351562 87.250000 268.648438 86.949219 268.949219 86.648438 C 271.382812 84.285156 273.933594 82.035156 276.601562 79.898438 C 277.300781 79.367188 277.984375 78.832031 278.648438 78.300781 C 279.316406 77.800781 279.984375 77.300781 280.648438 76.800781 C 282.050781 75.765625 283.449219 74.800781 284.851562 73.898438 C 285.183594 73.632812 285.535156 73.398438 285.898438 73.199219 C 286.234375 72.964844 286.582031 72.734375 286.949219 72.500000 C 287.648438 72.066406 288.351562 71.632812 289.050781 71.199219 C 290.484375 70.367188 291.898438 69.582031 293.300781 68.851562 C 296.167969 67.351562 298.964844 66.082031 301.699219 65.050781 C 304.433594 64.015625 307.050781 63.265625 309.550781 62.800781 C 310.183594 62.667969 310.800781 62.550781 311.398438 62.449219 C 312.000000 62.382812 312.582031 62.316406 313.148438 62.250000 C 314.316406 62.183594 315.398438 62.167969 316.398438 62.199219 C 317.800781 62.265625 319.050781 62.449219 320.148438 62.750000 C 319.050781 62.550781 317.851562 62.464844 316.550781 62.500000 C 314.449219 62.535156 312.167969 62.867188 309.699219 63.500000 C 307.234375 64.101562 304.667969 64.949219 302.000000 66.050781 C 299.300781 67.148438 296.566406 68.464844 293.800781 70.000000 C 291.035156 71.500000 288.285156 73.183594 285.550781 75.050781 C 284.851562 75.484375 284.167969 75.949219 283.500000 76.449219 C 282.800781 76.917969 282.117188 77.398438 281.449219 77.898438 C 280.785156 78.398438 280.117188 78.898438 279.449219 79.398438 C 278.785156 79.933594 278.117188 80.449219 277.449219 80.949219 C 274.851562 83.082031 272.351562 85.285156 269.949219 87.550781 C 267.550781 89.851562 265.316406 92.199219 263.250000 94.601562 C 261.183594 96.964844 259.316406 99.351562 257.648438 101.750000 C 256.015625 104.117188 254.632812 106.449219 253.500000 108.750000 C 252.367188 111.015625 251.566406 113.167969 251.101562 115.199219 C 250.765625 116.500000 250.582031 117.714844 250.550781 118.851562 M 327.351562 71.699219 C 327.417969 72.832031 327.332031 74.082031 327.101562 75.449219 C 326.933594 76.484375 326.683594 77.550781 326.351562 78.648438 C 326.148438 79.183594 325.949219 79.734375 325.750000 80.300781 C 325.550781 80.867188 325.316406 81.449219 325.050781 82.050781 C 324.050781 84.382812 322.750000 86.785156 321.148438 89.250000 C 319.550781 91.683594 317.714844 94.132812 315.648438 96.601562 C 314.648438 97.832031 313.582031 99.050781 312.449219 100.250000 C 311.882812 100.851562 311.300781 101.449219 310.699219 102.050781 C 310.433594 102.351562 310.148438 102.648438 309.851562 102.949219 C 309.550781 103.250000 309.250000 103.535156 308.949219 103.800781 C 307.750000 105.000000 306.500000 106.148438 305.199219 107.250000 C 304.566406 107.816406 303.933594 108.382812 303.300781 108.949219 C 302.632812 109.484375 301.964844 110.035156 301.300781 110.601562 C 298.632812 112.734375 295.898438 114.734375 293.101562 116.601562 C 292.734375 116.832031 292.382812 117.066406 292.050781 117.300781 C 291.683594 117.500000 291.316406 117.714844 290.949219 117.949219 C 290.250000 118.417969 289.550781 118.851562 288.851562 119.250000 C 287.449219 120.082031 286.035156 120.882812 284.601562 121.648438 C 281.765625 123.117188 278.964844 124.367188 276.199219 125.398438 C 273.464844 126.433594 270.851562 127.199219 268.351562 127.699219 C 267.714844 127.832031 267.101562 127.933594 266.500000 128.000000 C 265.898438 128.101562 265.316406 128.167969 264.750000 128.199219 C 263.617188 128.300781 262.535156 128.332031 261.500000 128.300781 C 260.101562 128.199219 258.832031 128.000000 257.699219 127.699219 C 258.800781 127.933594 260.035156 128.035156 261.398438 128.000000 C 263.464844 127.933594 265.734375 127.601562 268.199219 127.000000 C 270.667969 126.367188 273.250000 125.500000 275.949219 124.398438 C 278.617188 123.332031 281.332031 122.035156 284.101562 120.500000 C 286.867188 118.964844 289.632812 117.285156 292.398438 115.449219 C 295.132812 113.582031 297.816406 111.601562 300.449219 109.500000 C 301.082031 108.964844 301.734375 108.433594 302.398438 107.898438 C 303.035156 107.367188 303.667969 106.816406 304.300781 106.250000 C 304.898438 105.714844 305.515625 105.167969 306.148438 104.601562 C 306.750000 104.035156 307.351562 103.464844 307.949219 102.898438 C 310.351562 100.601562 312.582031 98.265625 314.648438 95.898438 C 316.750000 93.500000 318.617188 91.117188 320.250000 88.750000 C 321.917969 86.351562 323.300781 84.015625 324.398438 81.750000 C 325.535156 79.449219 326.351562 77.300781 326.851562 75.300781 C 327.148438 74.000000 327.316406 72.800781 327.351562 71.699219 M 326.800781 64.800781 C 321.101562 57.964844 312.601562 55.101562 301.300781 56.199219 C 290.132812 57.500000 279.382812 62.265625 269.050781 70.500000 C 258.785156 78.867188 251.832031 88.351562 248.199219 98.949219 C 244.699219 109.785156 245.683594 118.699219 251.148438 125.699219 C 256.816406 132.500000 265.316406 135.351562 276.648438 134.250000 C 287.785156 132.949219 298.535156 128.199219 308.898438 120.000000 C 319.132812 111.632812 326.082031 102.148438 329.750000 91.550781 C 333.214844 80.714844 332.234375 71.800781 326.800781 64.800781 "></path>
    <path style="stroke:none;fill-rule:evenodd;fill:rgb(0.392157%,0.392157%,0.392157%);fill-opacity:1" d="M 269.050781 70.500000 C 258.785156 78.867188 251.832031 88.351562 248.199219 98.949219 C 244.699219 109.785156 245.683594 118.699219 251.148438 125.699219 C 256.816406 132.500000 265.316406 135.351562 276.648438 134.250000 C 287.785156 132.949219 298.535156 128.199219 308.898438 120.000000 C 319.132812 111.632812 326.082031 102.148438 329.750000 91.550781 C 333.214844 80.714844 332.234375 71.800781 326.800781 64.800781 C 321.101562 57.964844 312.601562 55.101562 301.300781 56.199219 C 290.132812 57.500000 279.382812 62.265625 269.050781 70.500000 M 270.000000 71.699219 C 280.500000 63.535156 290.984375 58.882812 301.449219 57.750000 C 311.882812 56.648438 319.917969 59.332031 325.550781 65.800781 C 330.648438 72.667969 331.535156 81.082031 328.199219 91.050781 C 324.898438 101.015625 318.132812 110.250000 307.898438 118.750000 C 297.398438 126.917969 286.917969 131.566406 276.449219 132.699219 C 266.015625 133.832031 257.984375 131.167969 252.351562 124.699219 C 247.250000 117.832031 246.367188 109.417969 249.699219 99.449219 C 253.035156 89.484375 259.800781 80.234375 270.000000 71.699219 "></path>
  </g>
  <g id="surface4">
    <text style="fill:rgb(42,170,226)" font-family="Segoe UI" font-size="49" transform="matrix(0.7836456558773424,0,0,0.7836456558773424,162.83645655877342,156)" id="0" xml:space="preserve">Rugby Super Six</text>
  </g>
</svg>